<svg xmlns="http://www.w3.org/2000/svg" xmlns:xlink="http://www.w3.org/1999/xlink" width="500" zoomAndPan="magnify" viewBox="0 0 375 374.999991" height="500" preserveAspectRatio="xMidYMid meet" version="1.0"><defs><g/><clipPath id="19fc901828"><path d="M 100.144531 75 L 274.894531 75 L 274.894531 214.550781 L 100.144531 214.550781 Z M 100.144531 75 " clip-rule="nonzero"/></clipPath><clipPath id="f84c22cccb"><rect x="0" width="126" y="0" height="29"/></clipPath><clipPath id="2be6c88e80"><rect x="0" width="236" y="0" height="43"/></clipPath></defs><path fill="#000000" d="M 144.382812 139.320312 C 141.390625 136.664062 135.496094 130.675781 135.492188 126.964844 C 135.492188 126.21875 135.765625 125.070312 136.546875 124.296875 C 137.210938 123.636719 138.183594 123.304688 139.394531 123.324219 C 141.933594 123.351562 142.808594 124.988281 143.339844 127.4375 C 143.351562 127.488281 143.382812 127.527344 143.402344 127.574219 C 143.429688 127.652344 143.457031 127.734375 143.503906 127.804688 C 143.539062 127.859375 143.589844 127.898438 143.636719 127.945312 C 143.6875 127.996094 143.730469 128.050781 143.792969 128.09375 C 143.855469 128.136719 143.933594 128.15625 144.003906 128.1875 C 144.058594 128.207031 144.101562 128.242188 144.15625 128.253906 C 144.238281 128.265625 144.308594 128.257812 144.378906 128.257812 C 144.453125 128.257812 144.527344 128.269531 144.597656 128.253906 C 144.664062 128.242188 144.703125 128.210938 144.75 128.195312 C 144.828125 128.164062 144.910156 128.140625 144.980469 128.09375 C 145.035156 128.054688 145.078125 128 145.125 127.953125 C 145.175781 127.902344 145.226562 127.863281 145.265625 127.804688 C 145.3125 127.734375 145.335938 127.65625 145.367188 127.578125 C 145.386719 127.527344 145.417969 127.488281 145.429688 127.4375 C 145.960938 124.988281 146.835938 123.351562 149.375 123.324219 C 150.589844 123.289062 151.558594 123.636719 152.222656 124.296875 C 153 125.070312 153.277344 126.21875 153.277344 126.964844 C 153.273438 130.671875 147.378906 136.664062 144.382812 139.320312 Z M 149.355469 121.1875 C 146.683594 121.214844 145.214844 122.585938 144.386719 124.039062 C 143.554688 122.585938 142.085938 121.214844 139.414062 121.1875 C 137.585938 121.164062 136.128906 121.703125 135.042969 122.777344 C 133.476562 124.332031 133.355469 126.378906 133.355469 126.96875 C 133.363281 132.691406 142.628906 140.652344 143.6875 141.542969 C 143.765625 141.605469 143.851562 141.644531 143.9375 141.683594 C 144.09375 141.753906 144.230469 141.792969 144.375 141.792969 C 144.539062 141.792969 144.675781 141.753906 144.8125 141.695312 C 144.917969 141.644531 145.003906 141.605469 145.082031 141.542969 C 146.140625 140.652344 155.410156 132.691406 155.414062 126.96875 C 155.414062 126.378906 155.292969 124.332031 153.726562 122.777344 C 152.640625 121.703125 151.140625 121.144531 149.355469 121.1875 " fill-opacity="1" fill-rule="nonzero"/><path fill="#000000" d="M 143.238281 93.929688 C 143.082031 93.359375 142.492188 93.027344 141.925781 93.1875 C 137.113281 94.535156 129.578125 95.855469 127.890625 94.574219 C 127.734375 94.457031 127.703125 94.355469 127.703125 94.21875 C 127.703125 91.007812 133.320312 84.722656 135.484375 82.574219 C 135.902344 82.15625 135.902344 81.480469 135.488281 81.0625 C 135.070312 80.644531 134.394531 80.644531 133.976562 81.058594 C 133.117188 81.914062 125.570312 89.546875 125.570312 94.21875 C 125.570312 95.050781 125.925781 95.765625 126.597656 96.273438 C 127.503906 96.960938 129.03125 97.214844 130.800781 97.214844 C 135.167969 97.214844 141 95.664062 142.5 95.246094 C 143.066406 95.085938 143.398438 94.496094 143.238281 93.929688 " fill-opacity="1" fill-rule="nonzero"/><path fill="#000000" d="M 123.253906 82.566406 L 122.078125 83.742188 C 121.660156 84.160156 121.660156 84.835938 122.078125 85.253906 C 122.289062 85.460938 122.5625 85.566406 122.832031 85.566406 C 123.105469 85.566406 123.378906 85.460938 123.589844 85.253906 L 124.765625 84.078125 C 125.183594 83.660156 125.183594 82.984375 124.765625 82.566406 C 124.347656 82.148438 123.671875 82.148438 123.253906 82.566406 " fill-opacity="1" fill-rule="nonzero"/><g clip-path="url(#19fc901828)"><path fill="#000000" d="M 267.820312 115.144531 C 265.628906 116.386719 262.898438 117.9375 260.128906 119.84375 C 252.773438 124.898438 247.09375 125.582031 242.503906 125.582031 L 234.757812 125.582031 C 234.40625 125.582031 234.074219 125.753906 233.875 126.046875 C 233.675781 126.339844 233.636719 126.710938 233.765625 127.039062 C 235.679688 131.910156 237.179688 136.726562 236.203125 146.394531 C 235.597656 152.363281 234.84375 156.394531 234.175781 159.949219 C 233.960938 161.097656 233.761719 162.175781 233.582031 163.222656 C 232.382812 170.28125 236.125 176.691406 238.601562 180.9375 C 239.660156 182.75 240.660156 184.464844 240.699219 185.300781 C 240.808594 187.578125 237.195312 202.554688 234.617188 212.574219 L 221.472656 212.574219 C 221.960938 210.46875 222.820312 209.089844 224.042969 208.460938 C 226.011719 207.453125 228.433594 208.675781 228.453125 208.6875 C 228.761719 208.847656 229.128906 208.847656 229.4375 208.691406 C 229.75 208.53125 229.960938 208.230469 230.007812 207.886719 C 230.019531 207.796875 231.238281 198.855469 231.871094 192.210938 C 232.363281 187.015625 230.097656 184.699219 224.617188 179.101562 C 222.300781 176.730469 219.414062 173.78125 215.816406 169.710938 C 208.949219 161.9375 206.605469 157.519531 205.207031 154.878906 C 204.136719 152.859375 203.488281 151.640625 201.699219 151.101562 C 197.359375 149.800781 188.003906 151.847656 173.902344 157.1875 C 157.933594 163.230469 147.984375 162.550781 147.886719 162.542969 C 147.386719 162.503906 146.925781 162.820312 146.78125 163.296875 L 144.707031 170.082031 C 144.410156 170.292969 144.214844 170.632812 144.246094 171.023438 L 144.28125 171.472656 L 131.710938 212.574219 L 120.003906 212.574219 C 120.480469 210.738281 121.273438 209.523438 122.367188 208.949219 C 124.101562 208.042969 126.167969 209.011719 126.1875 209.019531 C 126.496094 209.171875 126.859375 209.164062 127.160156 209 C 127.464844 208.835938 127.671875 208.539062 127.714844 208.195312 C 128.339844 203.347656 133.742188 160.671875 131.121094 155.425781 C 131.101562 155.386719 131.066406 155.363281 131.042969 155.328125 C 131.019531 155.292969 131.011719 155.253906 130.984375 155.21875 C 124.921875 147.945312 123.933594 142.425781 123.339844 136.472656 C 122.9375 132.476562 118.707031 106.28125 114.726562 103.890625 C 108.5 100.15625 103.90625 96.828125 103.296875 95.609375 C 102.855469 94.722656 102.894531 93.667969 103.070312 92.773438 C 103.398438 93.152344 103.769531 93.507812 104.191406 93.824219 C 107.027344 95.953125 112.53125 97.222656 116.214844 97.222656 C 116.804688 97.222656 117.28125 96.746094 117.28125 96.15625 C 117.28125 95.566406 116.804688 95.085938 116.214844 95.085938 C 112.476562 95.085938 107.65625 93.753906 105.472656 92.117188 C 103.925781 90.957031 103.210938 88.878906 102.9375 87.175781 L 108.886719 81.53125 C 110.730469 81.730469 112.628906 81.960938 114.003906 82.1875 C 116.648438 82.628906 118.472656 81.082031 120.078125 79.71875 C 121.101562 78.851562 122.066406 78.03125 123.109375 77.820312 C 125.730469 77.296875 132.414062 76.527344 137.816406 80.734375 C 143.0625 84.8125 144.277344 88.8125 145.53125 94.449219 C 147.855469 104.917969 149.894531 110.796875 151.585938 111.925781 C 153.578125 113.253906 168.609375 117.964844 172.640625 118.332031 C 174.667969 118.515625 178.09375 118.179688 182.433594 117.757812 C 193.722656 116.65625 210.78125 114.996094 226.933594 119.445312 C 227.015625 119.46875 227.101562 119.476562 227.183594 119.480469 C 229.097656 120.039062 239.886719 122.832031 250.648438 118.527344 C 258.449219 115.40625 270.109375 110.742188 272.460938 112.195312 C 271.847656 112.855469 269.722656 114.0625 267.820312 115.144531 Z M 219.210938 185.222656 C 219.144531 187.78125 214.96875 205.109375 213.121094 212.574219 L 200.835938 212.574219 C 201.332031 210.34375 202.191406 208.890625 203.351562 208.335938 C 204.941406 207.574219 206.796875 208.648438 206.808594 208.65625 C 207.109375 208.835938 207.476562 208.859375 207.792969 208.714844 C 208.113281 208.574219 208.34375 208.285156 208.410156 207.941406 C 209.796875 200.753906 212.90625 183.789062 211.828125 181.589844 C 211.394531 180.703125 210.710938 179.710938 209.921875 178.558594 C 206.992188 174.289062 202.167969 167.207031 201.183594 153.183594 C 202.003906 153.464844 202.328125 154.011719 203.320312 155.878906 C 204.761719 158.605469 207.179688 163.164062 214.214844 171.125 C 216.105469 173.261719 217.792969 175.085938 219.3125 176.6875 C 219.3125 177.996094 219.292969 182.136719 219.210938 185.222656 Z M 154.027344 212.574219 L 141.523438 212.574219 C 142 210.738281 142.792969 209.523438 143.890625 208.949219 C 145.621094 208.042969 147.691406 209.011719 147.707031 209.019531 C 148.050781 209.1875 148.460938 209.15625 148.777344 208.941406 C 149.09375 208.726562 149.269531 208.359375 149.242188 207.976562 L 146.441406 171.714844 L 148.582031 164.710938 C 150.21875 164.738281 154.101562 164.640625 159.816406 163.507812 Z M 103.296875 80.988281 C 103.835938 81.035156 104.855469 81.125 106.085938 81.246094 L 102.800781 84.359375 C 102.859375 82.21875 103.074219 81.320312 103.296875 80.988281 Z M 274.261719 110.941406 C 271.695312 108.085938 263.328125 111.15625 249.855469 116.542969 C 238.972656 120.894531 227.652344 117.394531 227.542969 117.359375 C 227.449219 117.328125 227.355469 117.332031 227.261719 117.328125 C 210.800781 112.851562 193.617188 114.523438 182.226562 115.632812 C 177.996094 116.042969 174.660156 116.367188 172.832031 116.203125 C 168.90625 115.847656 154.3125 111.175781 152.773438 110.148438 C 151.886719 109.558594 149.894531 104.25 147.613281 93.984375 C 146.304688 88.082031 144.925781 83.554688 139.128906 79.046875 C 133.03125 74.304688 125.601562 75.144531 122.691406 75.726562 C 121.105469 76.042969 119.878906 77.085938 118.695312 78.089844 C 117.261719 79.308594 116.023438 80.359375 114.355469 80.082031 C 110.613281 79.457031 103.359375 78.851562 103.054688 78.824219 C 102.859375 78.808594 102.660156 78.847656 102.488281 78.933594 C 100.789062 79.78125 100.648438 82.523438 100.648438 85.496094 C 100.648438 85.863281 100.695312 88.082031 101.601562 90.3125 C 101.140625 91.414062 100.210938 94.210938 101.386719 96.5625 C 102.457031 98.707031 108.636719 102.726562 113.628906 105.722656 C 115.90625 107.089844 120.375 128.3125 121.214844 136.6875 C 121.839844 142.957031 122.882812 148.777344 129.234375 156.453125 C 130.898438 160.164062 128.132812 187.941406 125.757812 206.636719 C 124.640625 206.367188 122.984375 206.226562 121.402344 207.046875 C 119.433594 208.0625 118.167969 210.222656 117.636719 213.46875 C 117.585938 213.777344 117.675781 214.09375 117.878906 214.335938 C 118.078125 214.574219 118.378906 214.710938 118.691406 214.710938 L 132.5 214.710938 C 132.96875 214.710938 133.382812 214.402344 133.519531 213.953125 L 144.730469 177.304688 L 146.992188 206.574219 C 145.886719 206.351562 144.375 206.296875 142.921875 207.046875 C 140.957031 208.0625 139.691406 210.222656 139.160156 213.46875 C 139.109375 213.777344 139.195312 214.09375 139.398438 214.335938 C 139.601562 214.574219 139.898438 214.710938 140.210938 214.710938 L 154.976562 214.710938 C 155.519531 214.710938 155.976562 214.304688 156.039062 213.765625 L 161.996094 163.253906 C 162.003906 163.179688 161.984375 163.117188 161.976562 163.046875 C 165.609375 162.222656 169.851562 161.003906 174.65625 159.183594 C 188.707031 153.863281 195.632812 152.773438 199.019531 152.867188 C 199.964844 167.777344 205.074219 175.265625 208.160156 179.765625 C 208.902344 180.847656 209.542969 181.785156 209.894531 182.492188 C 210.363281 183.957031 208.601562 195.476562 206.558594 206.242188 C 205.503906 205.910156 203.964844 205.683594 202.449219 206.398438 C 200.378906 207.378906 199.046875 209.761719 198.5 213.488281 C 198.453125 213.792969 198.542969 214.105469 198.746094 214.339844 C 198.949219 214.574219 199.246094 214.710938 199.554688 214.710938 L 213.957031 214.710938 C 214.445312 214.710938 214.875 214.375 214.992188 213.898438 C 215.25 212.875 221.253906 188.707031 221.347656 185.28125 C 221.402344 183.242188 221.425781 180.75 221.4375 178.898438 C 222.019531 179.496094 222.570312 180.0625 223.089844 180.59375 C 228.367188 185.984375 230.144531 187.800781 229.742188 192.007812 C 229.257812 197.085938 228.433594 203.523438 228.070312 206.265625 C 226.816406 205.902344 224.894531 205.632812 223.082031 206.554688 C 220.980469 207.625 219.652344 209.957031 219.132812 213.488281 C 219.085938 213.792969 219.175781 214.105469 219.378906 214.339844 C 219.582031 214.574219 219.878906 214.710938 220.1875 214.710938 L 235.441406 214.710938 C 235.929688 214.710938 236.355469 214.382812 236.476562 213.910156 C 237.144531 211.332031 242.996094 188.613281 242.832031 185.199219 C 242.769531 183.839844 241.792969 182.167969 240.445312 179.859375 C 237.988281 175.644531 234.621094 169.875 235.6875 163.578125 C 235.863281 162.542969 236.0625 161.480469 236.277344 160.34375 C 236.917969 156.921875 237.714844 152.667969 238.328125 146.609375 C 239.253906 137.464844 237.992188 132.277344 236.308594 127.714844 L 242.503906 127.714844 C 247.421875 127.714844 253.503906 126.988281 261.335938 121.605469 C 264.035156 119.75 266.71875 118.226562 268.878906 117 C 272.484375 114.953125 274.472656 113.824219 274.707031 112.386719 C 274.789062 111.867188 274.632812 111.351562 274.261719 110.941406 " fill-opacity="1" fill-rule="nonzero"/></g><g transform="matrix(1, 0, 0, 1, 125, 275)"><g clip-path="url(#f84c22cccb)"><g fill="#000000" fill-opacity="1"><g transform="translate(1.222826, 20.810887)"><g><path d="M 4.859375 0 L 1.421875 0 L 1.421875 -12.484375 L 5.375 -12.484375 C 7.019531 -12.484375 8.320312 -11.988281 9.28125 -11 C 10.238281 -10.019531 10.71875 -8.507812 10.71875 -6.46875 C 10.71875 -5.320312 10.5625 -4.335938 10.25 -3.515625 C 9.945312 -2.691406 9.523438 -2.019531 8.984375 -1.5 C 8.441406 -0.988281 7.816406 -0.609375 7.109375 -0.359375 C 6.410156 -0.117188 5.660156 0 4.859375 0 Z M 2.140625 -12.296875 L 2.140625 -0.171875 L 4.296875 -0.171875 C 5.492188 -0.171875 6.515625 -0.359375 7.359375 -0.734375 C 8.210938 -1.109375 8.867188 -1.753906 9.328125 -2.671875 C 9.785156 -3.585938 10.015625 -4.851562 10.015625 -6.46875 C 10.015625 -7.738281 9.84375 -8.804688 9.5 -9.671875 C 9.164062 -10.535156 8.59375 -11.1875 7.78125 -11.625 C 6.976562 -12.070312 5.882812 -12.296875 4.5 -12.296875 Z M 2.140625 -12.296875 "/></g></g></g><g fill="#000000" fill-opacity="1"><g transform="translate(14.468948, 20.810887)"><g><path d="M 6.4375 0.296875 C 5.570312 0.296875 4.8125 0.117188 4.15625 -0.234375 C 3.5 -0.585938 2.945312 -1.066406 2.5 -1.671875 C 2.050781 -2.285156 1.710938 -2.984375 1.484375 -3.765625 C 1.265625 -4.546875 1.15625 -5.363281 1.15625 -6.21875 C 1.15625 -7.082031 1.265625 -7.910156 1.484375 -8.703125 C 1.710938 -9.492188 2.050781 -10.191406 2.5 -10.796875 C 2.945312 -11.410156 3.5 -11.894531 4.15625 -12.25 C 4.8125 -12.601562 5.570312 -12.78125 6.4375 -12.78125 C 7.300781 -12.78125 8.0625 -12.601562 8.71875 -12.25 C 9.375 -11.894531 9.925781 -11.410156 10.375 -10.796875 C 10.820312 -10.191406 11.15625 -9.492188 11.375 -8.703125 C 11.601562 -7.910156 11.71875 -7.082031 11.71875 -6.21875 C 11.71875 -5.363281 11.601562 -4.546875 11.375 -3.765625 C 11.15625 -2.984375 10.820312 -2.285156 10.375 -1.671875 C 9.925781 -1.066406 9.375 -0.585938 8.71875 -0.234375 C 8.0625 0.117188 7.300781 0.296875 6.4375 0.296875 Z M 6.4375 0.125 C 7.28125 0.125 7.988281 -0.0664062 8.5625 -0.453125 C 9.144531 -0.835938 9.613281 -1.335938 9.96875 -1.953125 C 10.332031 -2.578125 10.59375 -3.265625 10.75 -4.015625 C 10.914062 -4.765625 11 -5.5 11 -6.21875 C 11 -6.957031 10.914062 -7.695312 10.75 -8.4375 C 10.59375 -9.1875 10.332031 -9.875 9.96875 -10.5 C 9.613281 -11.132812 9.144531 -11.644531 8.5625 -12.03125 C 7.988281 -12.414062 7.28125 -12.609375 6.4375 -12.609375 C 5.601562 -12.609375 4.894531 -12.414062 4.3125 -12.03125 C 3.726562 -11.644531 3.253906 -11.132812 2.890625 -10.5 C 2.535156 -9.875 2.273438 -9.1875 2.109375 -8.4375 C 1.941406 -7.695312 1.859375 -6.957031 1.859375 -6.21875 C 1.859375 -5.5 1.941406 -4.765625 2.109375 -4.015625 C 2.273438 -3.265625 2.535156 -2.578125 2.890625 -1.953125 C 3.253906 -1.335938 3.726562 -0.835938 4.3125 -0.453125 C 4.894531 -0.0664062 5.601562 0.125 6.4375 0.125 Z M 6.4375 0.125 "/></g></g></g><g fill="#000000" fill-opacity="1"><g transform="translate(28.710762, 20.810887)"><g><path d="M 7.375 0.265625 C 6.21875 0.265625 5.164062 0.00390625 4.21875 -0.515625 C 3.28125 -1.035156 2.535156 -1.796875 1.984375 -2.796875 C 1.429688 -3.796875 1.15625 -5.015625 1.15625 -6.453125 C 1.15625 -7.804688 1.4375 -8.945312 2 -9.875 C 2.5625 -10.800781 3.316406 -11.507812 4.265625 -12 C 5.222656 -12.488281 6.289062 -12.734375 7.46875 -12.734375 C 8.0625 -12.734375 8.675781 -12.671875 9.3125 -12.546875 C 9.945312 -12.421875 10.582031 -12.222656 11.21875 -11.953125 L 11.125 -11.234375 C 10.4375 -11.648438 9.742188 -11.960938 9.046875 -12.171875 C 8.347656 -12.378906 7.664062 -12.484375 7 -12.484375 C 6.050781 -12.484375 5.1875 -12.257812 4.40625 -11.8125 C 3.625 -11.375 3.003906 -10.707031 2.546875 -9.8125 C 2.085938 -8.925781 1.859375 -7.804688 1.859375 -6.453125 C 1.859375 -5.492188 2.003906 -4.613281 2.296875 -3.8125 C 2.597656 -3.007812 3.015625 -2.320312 3.546875 -1.75 C 4.078125 -1.175781 4.6875 -0.734375 5.375 -0.421875 C 6.0625 -0.109375 6.796875 0.046875 7.578125 0.046875 C 8.097656 0.046875 8.617188 -0.0195312 9.140625 -0.15625 C 9.671875 -0.300781 10.203125 -0.523438 10.734375 -0.828125 L 10.734375 -6.53125 L 11.453125 -6.53125 L 11.453125 -0.734375 C 10.023438 -0.0664062 8.664062 0.265625 7.375 0.265625 Z M 7.375 0.265625 "/></g></g></g><g fill="#000000" fill-opacity="1"><g transform="translate(42.863674, 20.810887)"><g/></g></g><g fill="#000000" fill-opacity="1"><g transform="translate(48.32215, 20.810887)"><g><path d="M 2.140625 0 L 1.421875 0 L 1.421875 -12.484375 L 5.453125 -12.484375 C 6.304688 -12.484375 7.003906 -12.335938 7.546875 -12.046875 C 8.085938 -11.753906 8.488281 -11.375 8.75 -10.90625 C 9.007812 -10.445312 9.140625 -9.957031 9.140625 -9.4375 C 9.140625 -8.9375 9.035156 -8.441406 8.828125 -7.953125 C 8.617188 -7.460938 8.304688 -7.039062 7.890625 -6.6875 C 7.472656 -6.332031 6.953125 -6.101562 6.328125 -6 L 6.328125 -5.953125 C 6.546875 -5.859375 6.71875 -5.742188 6.84375 -5.609375 C 6.96875 -5.484375 7.082031 -5.316406 7.1875 -5.109375 L 9.6875 0 L 8.984375 0 L 6.328125 -5.203125 C 6.109375 -5.660156 5.726562 -5.890625 5.1875 -5.890625 C 4.820312 -5.890625 4.359375 -5.742188 3.796875 -5.453125 C 3.234375 -5.171875 2.679688 -4.765625 2.140625 -4.234375 Z M 2.140625 -12.296875 L 2.140625 -4.421875 C 2.722656 -4.941406 3.316406 -5.359375 3.921875 -5.671875 C 4.535156 -5.992188 5.125 -6.132812 5.6875 -6.09375 C 6.351562 -6.0625 6.898438 -6.195312 7.328125 -6.5 C 7.765625 -6.8125 8.085938 -7.21875 8.296875 -7.71875 C 8.503906 -8.21875 8.609375 -8.710938 8.609375 -9.203125 C 8.609375 -9.734375 8.476562 -10.226562 8.21875 -10.6875 C 7.957031 -11.15625 7.550781 -11.539062 7 -11.84375 C 6.457031 -12.144531 5.765625 -12.296875 4.921875 -12.296875 Z M 2.140625 -12.296875 "/></g></g></g><g fill="#000000" fill-opacity="1"><g transform="translate(60.270333, 20.810887)"><g><path d="M 2.140625 -6.9375 L 2.140625 -0.171875 C 3.742188 -0.171875 5.203125 -0.203125 6.515625 -0.265625 C 7.835938 -0.335938 9.054688 -0.488281 10.171875 -0.71875 L 10.171875 0 L 1.421875 0 L 1.421875 -12.484375 L 9.90625 -12.484375 L 9.90625 -11.765625 C 8.988281 -11.992188 7.878906 -12.140625 6.578125 -12.203125 C 5.273438 -12.265625 3.796875 -12.296875 2.140625 -12.296875 L 2.140625 -7.109375 L 9.125 -7.109375 L 9.125 -6.9375 Z M 2.140625 -6.9375 "/></g></g></g><g fill="#000000" fill-opacity="1"><g transform="translate(73.089733, 20.810887)"><g><path d="M 5.515625 0.203125 C 4.828125 0.203125 4.101562 0.128906 3.34375 -0.015625 C 2.59375 -0.171875 1.820312 -0.394531 1.03125 -0.6875 L 1.203125 -1.40625 C 2.109375 -0.96875 2.929688 -0.625 3.671875 -0.375 C 4.410156 -0.132812 5.09375 -0.015625 5.71875 -0.015625 C 6.539062 -0.015625 7.257812 -0.128906 7.875 -0.359375 C 8.5 -0.597656 8.972656 -0.941406 9.296875 -1.390625 C 9.617188 -1.847656 9.738281 -2.421875 9.65625 -3.109375 C 9.59375 -3.609375 9.394531 -4.039062 9.0625 -4.40625 C 8.738281 -4.78125 8.320312 -5.113281 7.8125 -5.40625 C 7.300781 -5.695312 6.75 -5.96875 6.15625 -6.21875 C 5.5625 -6.46875 4.96875 -6.710938 4.375 -6.953125 C 3.78125 -7.191406 3.234375 -7.441406 2.734375 -7.703125 C 2.234375 -7.972656 1.820312 -8.269531 1.5 -8.59375 C 1.175781 -8.925781 0.988281 -9.300781 0.9375 -9.71875 C 0.882812 -10.226562 0.972656 -10.671875 1.203125 -11.046875 C 1.429688 -11.429688 1.757812 -11.75 2.1875 -12 C 2.625 -12.257812 3.125 -12.453125 3.6875 -12.578125 C 4.257812 -12.703125 4.859375 -12.765625 5.484375 -12.765625 C 6.085938 -12.765625 6.738281 -12.707031 7.4375 -12.59375 C 8.132812 -12.476562 8.863281 -12.304688 9.625 -12.078125 L 9.40625 -11.359375 C 9.03125 -11.566406 8.609375 -11.757812 8.140625 -11.9375 C 7.679688 -12.125 7.21875 -12.273438 6.75 -12.390625 C 6.289062 -12.515625 5.867188 -12.578125 5.484375 -12.578125 C 4.179688 -12.578125 3.179688 -12.351562 2.484375 -11.90625 C 1.785156 -11.46875 1.472656 -10.921875 1.546875 -10.265625 C 1.597656 -9.867188 1.785156 -9.515625 2.109375 -9.203125 C 2.429688 -8.890625 2.847656 -8.597656 3.359375 -8.328125 C 3.867188 -8.066406 4.421875 -7.804688 5.015625 -7.546875 C 5.617188 -7.296875 6.222656 -7.03125 6.828125 -6.75 C 7.429688 -6.476562 7.988281 -6.1875 8.5 -5.875 C 9.019531 -5.5625 9.445312 -5.207031 9.78125 -4.8125 C 10.113281 -4.425781 10.304688 -3.976562 10.359375 -3.46875 C 10.429688 -2.863281 10.347656 -2.328125 10.109375 -1.859375 C 9.878906 -1.398438 9.53125 -1.019531 9.0625 -0.71875 C 8.601562 -0.414062 8.066406 -0.1875 7.453125 -0.03125 C 6.847656 0.125 6.203125 0.203125 5.515625 0.203125 Z M 5.515625 0.203125 "/></g></g></g><g fill="#000000" fill-opacity="1"><g transform="translate(85.82023, 20.810887)"><g><path d="M 7.96875 0.265625 C 6.625 0.265625 5.4375 0 4.40625 -0.53125 C 3.382812 -1.0625 2.585938 -1.832031 2.015625 -2.84375 C 1.441406 -3.851562 1.15625 -5.066406 1.15625 -6.484375 C 1.15625 -7.859375 1.453125 -9.019531 2.046875 -9.96875 C 2.648438 -10.914062 3.457031 -11.632812 4.46875 -12.125 C 5.488281 -12.625 6.625 -12.875 7.875 -12.875 C 9.09375 -12.875 10.34375 -12.644531 11.625 -12.1875 L 11.625 -11.46875 C 11.207031 -11.632812 10.796875 -11.8125 10.390625 -12 C 9.984375 -12.1875 9.585938 -12.347656 9.203125 -12.484375 C 8.816406 -12.628906 8.441406 -12.703125 8.078125 -12.703125 C 6.867188 -12.703125 5.796875 -12.445312 4.859375 -11.9375 C 3.921875 -11.425781 3.1875 -10.707031 2.65625 -9.78125 C 2.125 -8.851562 1.859375 -7.753906 1.859375 -6.484375 C 1.859375 -5.503906 2.023438 -4.613281 2.359375 -3.8125 C 2.691406 -3.007812 3.15625 -2.316406 3.75 -1.734375 C 4.351562 -1.160156 5.050781 -0.71875 5.84375 -0.40625 C 6.644531 -0.101562 7.515625 0.046875 8.453125 0.046875 C 8.796875 0.046875 9.140625 -0.015625 9.484375 -0.140625 C 9.828125 -0.273438 10.175781 -0.429688 10.53125 -0.609375 C 10.894531 -0.785156 11.257812 -0.9375 11.625 -1.0625 L 11.625 -0.359375 C 10.3125 0.0546875 9.09375 0.265625 7.96875 0.265625 Z M 7.96875 0.265625 "/></g></g></g><g fill="#000000" fill-opacity="1"><g transform="translate(99.741994, 20.810887)"><g><path d="M 5.671875 0.265625 C 4.859375 0.265625 4.113281 0.128906 3.4375 -0.140625 C 2.769531 -0.421875 2.238281 -0.835938 1.84375 -1.390625 C 1.445312 -1.941406 1.25 -2.632812 1.25 -3.46875 L 1.25 -12.484375 L 1.96875 -12.484375 L 1.96875 -3.46875 C 1.96875 -2.707031 2.082031 -2.09375 2.3125 -1.625 C 2.550781 -1.15625 2.859375 -0.796875 3.234375 -0.546875 C 3.617188 -0.296875 4.019531 -0.125 4.4375 -0.03125 C 4.863281 0.0507812 5.273438 0.09375 5.671875 0.09375 C 6.066406 0.09375 6.472656 0.0507812 6.890625 -0.03125 C 7.304688 -0.125 7.695312 -0.296875 8.0625 -0.546875 C 8.4375 -0.796875 8.738281 -1.15625 8.96875 -1.625 C 9.195312 -2.09375 9.3125 -2.707031 9.3125 -3.46875 L 9.3125 -12.484375 L 10.03125 -12.484375 L 10.03125 -3.46875 C 10.03125 -2.632812 9.835938 -1.941406 9.453125 -1.390625 C 9.066406 -0.835938 8.546875 -0.421875 7.890625 -0.140625 C 7.234375 0.128906 6.492188 0.265625 5.671875 0.265625 Z M 5.671875 0.265625 "/></g></g></g><g fill="#000000" fill-opacity="1"><g transform="translate(112.312474, 20.810887)"><g><path d="M 2.140625 -6.9375 L 2.140625 -0.171875 C 3.742188 -0.171875 5.203125 -0.203125 6.515625 -0.265625 C 7.835938 -0.335938 9.054688 -0.488281 10.171875 -0.71875 L 10.171875 0 L 1.421875 0 L 1.421875 -12.484375 L 9.90625 -12.484375 L 9.90625 -11.765625 C 8.988281 -11.992188 7.878906 -12.140625 6.578125 -12.203125 C 5.273438 -12.265625 3.796875 -12.296875 2.140625 -12.296875 L 2.140625 -7.109375 L 9.125 -7.109375 L 9.125 -6.9375 Z M 2.140625 -6.9375 "/></g></g></g></g></g><g transform="matrix(1, 0, 0, 1, 70, 233)"><g clip-path="url(#2be6c88e80)"><g fill="#000000" fill-opacity="1"><g transform="translate(0.411926, 32.807243)"><g><path d="M 19.71875 -31.203125 L 22.59375 -31.203125 L 22.59375 0 L 19.71875 0 L 19.71875 -14.640625 L 5.84375 -14.640625 L 5.84375 0 L 2.953125 0 L 2.953125 -31.203125 L 5.84375 -31.203125 L 5.84375 -17.203125 L 19.71875 -17.203125 Z M 19.71875 -31.203125 "/></g></g></g><g fill="#000000" fill-opacity="1"><g transform="translate(25.975117, 32.807243)"><g><path d="M 10.15625 -31.515625 L 14.28125 -31.515625 L 23.28125 0 L 20.15625 0 L 17.921875 -8 L 6.515625 -8 L 4.28125 0 L 1.15625 0 Z M 12.203125 -28.359375 L 7.234375 -10.59375 L 17.15625 -10.59375 Z M 12.203125 -28.359375 "/></g></g></g><g fill="#000000" fill-opacity="1"><g transform="translate(50.418156, 32.807243)"><g><path d="M 5.84375 -12.6875 L 5.84375 0 L 2.953125 0 L 2.953125 -31.203125 L 11.59375 -31.203125 C 12.71875 -31.203125 13.835938 -31.070312 14.953125 -30.8125 C 16.078125 -30.5625 17.101562 -30.109375 18.03125 -29.453125 C 18.96875 -28.804688 19.722656 -27.910156 20.296875 -26.765625 C 20.867188 -25.617188 21.15625 -24.132812 21.15625 -22.3125 L 21.15625 -21.515625 C 21.15625 -19.734375 20.867188 -18.269531 20.296875 -17.125 C 19.722656 -15.976562 18.96875 -15.078125 18.03125 -14.421875 C 17.101562 -13.765625 16.078125 -13.3125 14.953125 -13.0625 C 13.835938 -12.8125 12.71875 -12.6875 11.59375 -12.6875 Z M 5.84375 -15.28125 L 11.6875 -15.28125 C 12.351562 -15.28125 13.0625 -15.359375 13.8125 -15.515625 C 14.570312 -15.679688 15.285156 -15.988281 15.953125 -16.4375 C 16.617188 -16.894531 17.160156 -17.539062 17.578125 -18.375 C 17.992188 -19.21875 18.203125 -20.304688 18.203125 -21.640625 L 18.203125 -22.234375 C 18.203125 -23.566406 17.992188 -24.65625 17.578125 -25.5 C 17.160156 -26.34375 16.617188 -26.988281 15.953125 -27.4375 C 15.285156 -27.894531 14.570312 -28.203125 13.8125 -28.359375 C 13.0625 -28.515625 12.351562 -28.59375 11.6875 -28.59375 L 5.84375 -28.59375 Z M 5.84375 -15.28125 "/></g></g></g><g fill="#000000" fill-opacity="1"><g transform="translate(73.34101, 32.807243)"><g><path d="M 5.84375 -12.6875 L 5.84375 0 L 2.953125 0 L 2.953125 -31.203125 L 11.59375 -31.203125 C 12.71875 -31.203125 13.835938 -31.070312 14.953125 -30.8125 C 16.078125 -30.5625 17.101562 -30.109375 18.03125 -29.453125 C 18.96875 -28.804688 19.722656 -27.910156 20.296875 -26.765625 C 20.867188 -25.617188 21.15625 -24.132812 21.15625 -22.3125 L 21.15625 -21.515625 C 21.15625 -19.734375 20.867188 -18.269531 20.296875 -17.125 C 19.722656 -15.976562 18.96875 -15.078125 18.03125 -14.421875 C 17.101562 -13.765625 16.078125 -13.3125 14.953125 -13.0625 C 13.835938 -12.8125 12.71875 -12.6875 11.59375 -12.6875 Z M 5.84375 -15.28125 L 11.6875 -15.28125 C 12.351562 -15.28125 13.0625 -15.359375 13.8125 -15.515625 C 14.570312 -15.679688 15.285156 -15.988281 15.953125 -16.4375 C 16.617188 -16.894531 17.160156 -17.539062 17.578125 -18.375 C 17.992188 -19.21875 18.203125 -20.304688 18.203125 -21.640625 L 18.203125 -22.234375 C 18.203125 -23.566406 17.992188 -24.65625 17.578125 -25.5 C 17.160156 -26.34375 16.617188 -26.988281 15.953125 -27.4375 C 15.285156 -27.894531 14.570312 -28.203125 13.8125 -28.359375 C 13.0625 -28.515625 12.351562 -28.59375 11.6875 -28.59375 L 5.84375 -28.59375 Z M 5.84375 -15.28125 "/></g></g></g><g fill="#000000" fill-opacity="1"><g transform="translate(96.263865, 32.807243)"><g><path d="M 13 -9.4375 L 13 0 L 10.125 0 L 10.125 -9.4375 L 0.84375 -31.203125 L 3.953125 -31.203125 L 11.5625 -13 L 19.125 -31.203125 L 22.28125 -31.203125 Z M 13 -9.4375 "/></g></g></g><g fill="#000000" fill-opacity="1"><g transform="translate(119.346736, 32.807243)"><g/></g></g><g fill="#000000" fill-opacity="1"><g transform="translate(127.347727, 32.807243)"><g><path d="M 5.84375 -12.6875 L 5.84375 0 L 2.953125 0 L 2.953125 -31.203125 L 11.59375 -31.203125 C 12.71875 -31.203125 13.835938 -31.070312 14.953125 -30.8125 C 16.078125 -30.5625 17.101562 -30.109375 18.03125 -29.453125 C 18.96875 -28.804688 19.722656 -27.910156 20.296875 -26.765625 C 20.867188 -25.617188 21.15625 -24.132812 21.15625 -22.3125 L 21.15625 -21.515625 C 21.15625 -19.734375 20.867188 -18.269531 20.296875 -17.125 C 19.722656 -15.976562 18.96875 -15.078125 18.03125 -14.421875 C 17.101562 -13.765625 16.078125 -13.3125 14.953125 -13.0625 C 13.835938 -12.8125 12.71875 -12.6875 11.59375 -12.6875 Z M 5.84375 -15.28125 L 11.6875 -15.28125 C 12.351562 -15.28125 13.0625 -15.359375 13.8125 -15.515625 C 14.570312 -15.679688 15.285156 -15.988281 15.953125 -16.4375 C 16.617188 -16.894531 17.160156 -17.539062 17.578125 -18.375 C 17.992188 -19.21875 18.203125 -20.304688 18.203125 -21.640625 L 18.203125 -22.234375 C 18.203125 -23.566406 17.992188 -24.65625 17.578125 -25.5 C 17.160156 -26.34375 16.617188 -26.988281 15.953125 -27.4375 C 15.285156 -27.894531 14.570312 -28.203125 13.8125 -28.359375 C 13.0625 -28.515625 12.351562 -28.59375 11.6875 -28.59375 L 5.84375 -28.59375 Z M 5.84375 -15.28125 "/></g></g></g><g fill="#000000" fill-opacity="1"><g transform="translate(150.270581, 32.807243)"><g><path d="M 10.15625 -31.515625 L 14.28125 -31.515625 L 23.28125 0 L 20.15625 0 L 17.921875 -8 L 6.515625 -8 L 4.28125 0 L 1.15625 0 Z M 12.203125 -28.359375 L 7.234375 -10.59375 L 17.15625 -10.59375 Z M 12.203125 -28.359375 "/></g></g></g><g fill="#000000" fill-opacity="1"><g transform="translate(174.71362, 32.807243)"><g><path d="M 24.40625 0.3125 L 17.875 -28.078125 L 11.40625 0.3125 L 7.4375 0.3125 L 1.640625 -31.203125 L 4.6875 -31.203125 L 9.5625 -3.234375 L 15.953125 -31.203125 L 19.84375 -31.203125 L 26.234375 -3.234375 L 31.125 -31.203125 L 34.15625 -31.203125 L 28.359375 0.3125 Z M 24.40625 0.3125 "/></g></g></g><g fill="#000000" fill-opacity="1"><g transform="translate(210.518087, 32.807243)"><g><path d="M 11.515625 -14.796875 C 8.128906 -15.253906 5.726562 -16.203125 4.3125 -17.640625 C 2.90625 -19.078125 2.203125 -20.820312 2.203125 -22.875 L 2.203125 -23.28125 C 2.203125 -25.894531 3.09375 -27.941406 4.875 -29.421875 C 6.664062 -30.898438 9.039062 -31.640625 12 -31.640625 C 15.488281 -31.640625 18 -30.769531 19.53125 -29.03125 C 21.070312 -27.300781 21.84375 -24.820312 21.84375 -21.59375 L 21.84375 -20.640625 L 18.953125 -20.640625 C 18.953125 -23.597656 18.40625 -25.738281 17.3125 -27.0625 C 16.226562 -28.382812 14.5 -29.046875 12.125 -29.046875 L 11.84375 -29.046875 C 9.945312 -29.046875 8.359375 -28.5625 7.078125 -27.59375 C 5.796875 -26.632812 5.15625 -25.316406 5.15625 -23.640625 L 5.15625 -23.3125 C 5.15625 -22.226562 5.375 -21.273438 5.8125 -20.453125 C 6.257812 -19.640625 7.019531 -18.96875 8.09375 -18.4375 C 9.175781 -17.90625 10.675781 -17.503906 12.59375 -17.234375 C 16.007812 -16.785156 18.460938 -15.859375 19.953125 -14.453125 C 21.453125 -13.054688 22.203125 -11.160156 22.203125 -8.765625 L 22.203125 -8.359375 C 22.203125 -5.609375 21.28125 -3.453125 19.4375 -1.890625 C 17.601562 -0.335938 15.125 0.4375 12 0.4375 C 8.695312 0.4375 6.175781 -0.453125 4.4375 -2.234375 C 2.707031 -4.023438 1.84375 -6.535156 1.84375 -9.765625 L 1.84375 -10.15625 L 4.71875 -10.15625 C 4.71875 -7.414062 5.382812 -5.394531 6.71875 -4.09375 C 8.050781 -2.800781 9.769531 -2.15625 11.875 -2.15625 L 12.15625 -2.15625 C 14.289062 -2.15625 16.003906 -2.679688 17.296875 -3.734375 C 18.585938 -4.785156 19.234375 -6.257812 19.234375 -8.15625 L 19.234375 -8.515625 C 19.234375 -10.359375 18.625 -11.769531 17.40625 -12.75 C 16.195312 -13.738281 14.234375 -14.421875 11.515625 -14.796875 Z M 11.515625 -14.796875 "/></g></g></g></g></g></svg>